<?xml version="1.0" encoding="UTF-8"?>
<!DOCTYPE svg PUBLIC "-//W3C//DTD SVG 1.1//EN" "http://www.w3.org/Graphics/SVG/1.1/DTD/svg11.dtd">
<!-- Creator: CorelDRAW 2021 (64-Bit) -->
<svg xmlns="http://www.w3.org/2000/svg" xml:space="preserve" width="135.45mm" height="95.8204mm" version="1.1" style="shape-rendering:geometricPrecision; text-rendering:geometricPrecision; image-rendering:optimizeQuality; fill-rule:evenodd; clip-rule:evenodd"
viewBox="0 0 3887.23 2749.92"
 xmlns:xlink="http://www.w3.org/1999/xlink"
 xmlns:xodm="http://www.corel.com/coreldraw/odm/2003">
 <defs>
  <style type="text/css">
   <![CDATA[
    .fil0 {fill:white}
   ]]>
  </style>
 </defs>
 <g id="Layer_x0020_1">
  <metadata id="CorelCorpID_0Corel-Layer"/>
  <g id="_1765673049600">
   <path class="fil0" d="M3348.18 2437.97c0,58.53 60.78,70.32 138.83,104.12 24.39,10.56 32.55,18.89 58.57,24.95 -8.96,33.56 -29.08,43.73 -45.55,68.33 -41.93,-22.19 -280.99,-175.15 -311.28,-182.21 28.68,-39.15 108.57,-80.39 113.89,-144.25l311.28 0c0,108.46 -10.06,90.27 -15.18,151.84 -56.09,-13.07 -250.54,-148.68 -250.54,-22.78zm212.58 -903.48c0,51.53 77.63,204.89 -118.78,298.79 -30.79,14.72 -94.71,28.5 -110.93,48.51 -32.53,40.14 32.22,157.91 -281.03,212.47 -170.3,29.66 -248.49,-4.71 -248.49,77.98 0,126.57 239.47,11.31 307.35,49.28 28.48,15.93 63.88,33.17 79.85,57.01 -11.32,42.41 -102.52,101.96 -141.81,123.92 -257.57,143.95 -678.52,34.19 -719.41,-409.21l3.3 -101.91c0,-51.96 -39.25,-51.3 -70.58,-81.27 -76.81,-73.49 -57.94,-170.77 1.79,-215.28 144.47,-107.66 283.27,42.69 356.52,153.69 16.05,24.32 17.93,26.01 4.14,54.27 -35.31,72.32 -170.4,286.65 -170.4,339.13 0,28.53 68.54,87.82 117.41,3.53l259.77 -476.68c54.06,-96.73 94.2,-170.92 181.27,-236.3 170.74,-128.2 282.73,-110.51 489.28,-110.51 98.33,0 168.14,7.59 265.73,7.59 -40.38,173.35 -204.99,123.11 -204.99,204.99zm-387.21 -455.53c32.6,0 244.25,-58.03 265.73,-68.33 0,74.52 -27.61,131.73 -77.61,172.94 -49.43,40.74 -328.95,1.4 -526.68,255.32 -52,66.77 -92.27,141.69 -132.16,217.09 -10.04,-6.72 -51.3,-53.44 -56.05,-65.96 -23.76,-62.6 78.02,-293.77 213.87,-383.61 117.41,-77.64 138.29,-54.74 138.29,-127.44 0,-21.46 -31.67,-45.55 -53.15,-45.55 -116.25,0 -398.28,270.85 -402.39,455.53 -25.74,-2.14 -189.18,-117.82 -365.83,21.37 -76.3,60.13 -105.34,202.26 -66.93,282.32 -16.67,3.88 -43.87,15.91 -58.6,24.91 -67.44,41.24 -12.23,111.75 28.23,111.75 6.1,0 89.29,-33.45 98.7,-37.96 42.65,63.7 26.69,-3.14 30.11,129.32 3.46,133.94 72.75,257.58 147.68,353.41 44.83,57.34 123.22,112.29 189.06,144.99 158.24,78.59 309.88,80.75 475,24.3 75.86,-25.94 33.33,-37.81 160.74,38.44 50.01,29.93 95.18,58.91 146.2,89.16 122.24,72.46 227.42,165.54 345.5,-82.51 35.31,-74.18 62.11,-165.02 62.11,-271.95 0,-148.57 -164.27,-129.07 -242.95,-129.07 -83.57,0 -137.54,7.59 -220.17,7.59 -14.77,-22.05 -15.36,-10.19 -22.78,-37.96 73.11,-17.04 175.52,-117.01 182.21,-197.4 99.14,-8.25 218.4,-115.33 251.82,-234.08 23.27,-82.69 7.15,-108.07 6.31,-145.53 132.72,-70.23 197.4,-150.17 197.4,-311.28 0,-73.59 -86.26,-60.76 -159.44,-60.74 -73.39,0.02 -146.79,0 -220.18,0 0.65,-7.81 81.94,-161.33 33.03,-283.57 -10.82,-27.04 -27.6,-42.89 -55.8,-42.89 -17.34,0 -326.35,72.02 -351.01,105.1 -28.78,38.61 7.82,92.3 39.72,92.3z"/>
   <path class="fil0" d="M288.51 2460.74c-5.12,-61.58 -15.18,-43.38 -15.18,-151.84l311.28 0c5.38,64.72 83.7,103.06 113.88,144.25 -30.12,7.02 -271.25,161.03 -311.28,182.21 -16.47,-24.6 -36.59,-34.77 -45.55,-68.33 13.18,-3.07 197.4,-73.98 197.4,-113.89 0,-150.1 -169,-11.4 -250.55,7.59zm159.44 -1450.12c88.64,42.53 416.63,86.37 566.07,185.56 146.75,97.39 264.19,344.32 217.72,408.08 -10.09,13.84 -35.16,43.54 -47.35,51.71 -80.3,-151.76 -159.47,-289.88 -318.76,-372.13 -254.1,-131.22 -293.15,-29.72 -376.78,-139.49 -26.12,-34.28 -40.9,-76.46 -40.9,-133.72zm-113.89 -15.18c0,191.08 40.22,148.42 45.55,212.58 -73.39,0 -146.78,0.02 -220.18,0 -144.47,-0.04 -159.44,-4.36 -159.44,98.7 0,132.69 95,219.14 197.4,273.32 -0.92,41.12 -17.35,50.91 4.65,139.6 10.32,41.62 30.89,84.2 54.14,112.89 26.95,33.26 45.87,52.26 82.16,77.27 26.82,18.48 79.84,46.74 117.18,49.85 6.69,80.39 109.1,180.36 182.21,197.4 -7.42,27.77 -8.01,15.91 -22.78,37.96l-334.06 -7.59c-65.14,0 -129.07,58.32 -129.07,121.48 0,160.09 104.01,546.73 326.96,410.47l302.66 -183.87c64.85,-38.65 69.43,46.72 296.64,46.72 311.86,0 277.06,-151.84 189.81,-151.84 -52.33,0 -262.04,110.67 -505.59,-79.01 -24.86,-19.36 -55.44,-41.41 -63.83,-72.83 14.89,-22.23 49.62,-38.84 75.12,-54.05 76.13,-45.39 312.08,74.29 312.08,-52.25 0,-82.77 -80.53,-48.72 -248.49,-77.98 -311,-54.17 -250.5,-171.12 -276.86,-209.05 -15.56,-22.38 -83.01,-36.59 -115.1,-51.93 -201.53,-96.34 -113.05,-258.72 -120.11,-304.88 -11.69,-76.44 -164.01,-28.74 -203.66,-198.91l447.94 -7.59c248.13,0 382.53,157.48 488.33,346.81 26.19,46.87 44.87,87.07 71.06,133.93l149.12 268.46c49.58,88.71 42.51,116.32 111.45,116.32 15.33,0 45.55,-20.69 45.55,-53.15 0,-38.68 -137.61,-264.37 -170.4,-331.54 -16.89,-34.6 -4.55,-49.61 39.52,-103.03 77.57,-94.02 192.86,-200.53 321.14,-104.93 69.52,51.81 84.86,165.79 -38.35,243.47 -77.97,49.15 24.84,146.64 -81.01,359.34 -14.42,28.99 -21.36,42.81 -39.31,66.99 -31.17,41.98 -46.77,45.09 -46.77,82.29 0,83.48 97.01,103.35 200.03,-111.25 38.34,-79.86 59.13,-166.94 57.77,-261.11 -1.05,-72.78 3.07,-41.91 30.71,-83.18 9.41,4.51 92.6,37.96 98.7,37.96 52.75,0 115.09,-102.77 -30.37,-136.66 38.41,-80.06 9.37,-222.19 -66.93,-282.32 -69.33,-54.64 -122.78,-66.93 -213.98,-66.93 -77.1,0 -99.4,33.33 -151.84,45.55 -0.92,-41.31 -31.82,-109.29 -47.98,-141.83 -23.6,-47.54 -45.36,-80.71 -76.59,-120.81 -167.92,-215.63 -413.18,-233.14 -658.35,-305.87 -102.45,-30.39 -180.55,-69.23 -212.1,-1.34 -8.59,18.48 -14.76,47.71 -14.76,76.35z"/>
   <path class="fil0" d="M1374.2 661.38c0,75.54 40.8,265.73 129.07,265.73 12.59,0 75.57,-24.04 33.01,-108.83 -142.95,-284.74 128.95,-492.62 314.32,-359.97 46.28,33.12 80.8,106.33 142.74,40.21 160.37,-171.17 398.22,-52.75 398.22,178.05 0,190.05 -223.17,402.42 -397.31,491.03 -67.9,34.55 -51.46,25.4 -121.61,-10.06 -37.67,-19.04 -73.08,-44.26 -105.89,-68.73 -83.36,-62.18 -67.16,-78.17 -134.41,-78.17 -43.07,0 -57.69,66.93 -20.5,103.97 13.16,13.11 8.02,5.93 21.44,16.57 10.71,8.49 13.31,12.19 24.18,21.37 54.77,46.21 222.51,161.78 286.16,161.78 47.52,0 167.6,-76.25 203.5,-100.19 39.36,-26.24 132.67,-99.8 166.74,-136.95 37.26,-40.63 103.59,-128.84 128.39,-175.3 85.63,-160.38 105.77,-352.88 -29.65,-489.29 -100.98,-101.72 -230.65,-146.55 -374.92,-89.89 -44.46,17.46 -60.83,35.53 -94.06,57.78 -33.23,-22.25 -49.6,-40.32 -94.06,-57.78 -185.27,-72.77 -377.44,33.1 -440.84,191 -14.71,36.63 -34.52,101.38 -34.52,147.69z"/>
   <path class="fil0" d="M1116.06 418.43c0,53.57 88.19,75.92 144.25,75.92 54.49,0 75.76,-57.67 42.8,-95.74 -23.8,-27.49 -187.05,-81.12 -187.05,19.82z"/>
   <path class="fil0" d="M2626.92 494.35c79.19,0 184.58,-41.36 128.54,-113.36 -4.32,-5.56 -21.14,-23.3 -29.84,-23.3 -194.11,0 -185.38,136.66 -98.7,136.66z"/>
   <path class="fil0" d="M1480.49 46.41c0,40.09 6.06,62.11 16.57,97.31 30.25,101.24 120.09,40.05 120.09,8.99 0,-24.12 -17.06,-151.84 -68.33,-151.84 -29.41,0 -68.33,10.03 -68.33,45.55z"/>
   <path class="fil0" d="M2270.08 145.11c0,47.98 89.74,91.43 118.35,4.47l18.31 -103.17c0,-43.24 -94.55,-82.54 -118.55,10.51 -4.65,18.03 -18.11,76.49 -18.11,88.19z"/>
   <path class="fil0" d="M2444.7 258.99c0,121.11 174.62,40.17 174.62,-68.33 0,-0.77 -26.54,-99.86 -123.42,-1.94 -16.55,16.73 -51.2,43.25 -51.2,70.27z"/>
   <path class="fil0" d="M1267.91 190.66c0,62.5 66.57,129.07 129.07,129.07 0.77,0 99.86,-26.54 1.94,-123.42 -16.73,-16.55 -43.25,-51.2 -70.27,-51.2 -27.75,0 -60.74,20.95 -60.74,45.55z"/>
   <path class="fil0" d="M1457.71 1686.33c0,67.94 113.89,89.86 113.89,-15.18 0,-51.73 -113.89,-72.08 -113.89,15.18z"/>
   <path class="fil0" d="M2315.64 1671.15c0,105.04 113.88,83.12 113.88,15.18 0,-87.31 -113.88,-66.66 -113.88,-15.18z"/>
  </g>
 </g>
</svg>
