<?xml version="1.0" encoding="UTF-8"?>
<!DOCTYPE svg PUBLIC "-//W3C//DTD SVG 1.1//EN" "http://www.w3.org/Graphics/SVG/1.1/DTD/svg11.dtd">
<!-- Creator: CorelDRAW 2021 (64-Bit) -->
<svg xmlns="http://www.w3.org/2000/svg" xml:space="preserve" width="162.344mm" height="180.6mm" version="1.1" style="shape-rendering:geometricPrecision; text-rendering:geometricPrecision; image-rendering:optimizeQuality; fill-rule:evenodd; clip-rule:evenodd"
viewBox="0 0 16234.62 18060.26"
 xmlns:xlink="http://www.w3.org/1999/xlink"
 xmlns:xodm="http://www.corel.com/coreldraw/odm/2003">
 <defs>
  <style type="text/css">
   <![CDATA[
    .fil0 {fill:black}
   ]]>
  </style>
 </defs>
 <g id="Layer_x0020_1">
  <metadata id="CorelCorpID_0Corel-Layer"/>
  <g id="_1765900350592">
   <path class="fil0" d="M744.92 16472.93l35.27 -282.19c236.37,-55.07 742.95,88.5 1020.01,144.04l2657.3 517.34c437,87 449.74,30.45 449.74,326.3 0,288.64 -602.58,80.54 -961.21,8.81l-2716.1 -529.11c-250.84,-50.09 -485.02,-43.44 -485.02,-185.18zm1693.15 -7901.36l4056.51 0c-369.82,770.71 -251.89,741.99 -796.89,1531.19 -166.8,241.54 -342.79,417.63 -551.87,612.18 -207.26,192.85 -466.46,345.59 -735.64,428.43 -712,219.1 -1186.41,-256.51 -1463.93,-716.61 -238.66,-395.66 -508.17,-1240.68 -508.17,-1855.18zm4303.42 -740.75l-4338.69 0c50.25,-215.7 77.69,-955.03 233.13,-1636.39 227.81,-998.64 723.74,-2536.82 1189.15,-3467.01 83.03,-165.94 269.08,-487.22 306.14,-646.26 76.35,36.63 2726.58,560.69 2892.47,564.38 129.94,1561.62 106.18,2887.61 -151.1,4434.51 -16.36,98.36 -38.68,245.21 -62.87,360.42 -28.14,134.02 -68.22,222.65 -68.22,390.35zm-5044.17 -141.1c0,1149.3 55.51,2237.42 676.67,3203.46 203.49,316.47 641.96,801.06 1016.48,888.31 -72.37,310.66 -129.24,639.42 -191.29,972.75 -65.36,351.15 -133.14,696.97 -187.04,1012.27l-362.42 2000.94 -1651.74 -324.16c-951.12,-90.88 -1263.98,1101.7 -757.55,1604.69 323.46,321.26 1264.75,407.46 1841.61,521.74 351.77,69.69 2365.35,490.54 2684.11,490.54 820.62,0 1175.69,-1087.4 610.12,-1633.07 -162.47,-156.76 -321.58,-204.81 -589.27,-257.29l-1431.8 -261.34c194.93,-836.73 372.13,-2068 555.68,-2971.72l185.07 -1014.24c451.11,0 781.75,-148 1060.35,-315.34 530.62,-318.74 1049.93,-896.21 1362.59,-1424.05 569.84,-962 923.73,-1932.96 1094.22,-3103.38 133.01,-913.11 278.29,-2511.12 222.04,-3552.61 -8.93,-165.51 -37.13,-216 -35.44,-423.11 9.29,-1139.12 -196.93,-1084.84 -725.86,-1178.93 -278.91,-49.62 -533.79,-106.53 -793.85,-158.54 -230.26,-46.05 -2261.86,-459.89 -2388.18,-444.62 -293.14,35.45 -617.26,887.32 -748.4,1147.02 -264.37,523.48 -621.09,1498.36 -806.8,2050.38 -274.13,814.83 -639.29,2280.44 -639.29,3170.29z"/>
   <path class="fil0" d="M11327.11 17178.42c0,-295.84 12.74,-239.29 449.74,-326.3l3363.3 -659.89c110.34,-24.18 367.84,-107.56 376.34,215.97 5.2,197.99 -210.91,190.68 -394.41,226.48l-3362.72 659.01c-151.58,30.36 -432.25,112.11 -432.25,-115.28zm-1940.07 -9665.06l4373.97 0c0,1061.74 17.26,2123.14 -577.95,3019.99 -170.6,257.07 -421.76,513.21 -729.17,611.25 -1456.62,464.56 -2581.51,-1932.34 -2913.52,-3079.1 -44.09,-152.3 -100.34,-441.71 -153.33,-552.14zm-246.91 -4832.53c151.24,-72.58 1205.47,-251.25 1460.95,-302.75l1466.78 -296.91 484.06 1067.99c82.32,192.65 155.01,345.84 231.96,544.07 237.29,611.33 871.3,2464.56 871.3,3114.65l-4303.42 0c-159.69,0 -148.39,-600.6 -191.47,-902.02 -49.99,-349.74 -56.19,-692.01 -54.62,-1074.15 0.96,-235.02 -41.12,-309.09 -38.71,-528.49 2.26,-206.26 39.72,-289.85 38.35,-528.44 -2.38,-415.45 34.81,-698.21 34.81,-1093.96zm-776.03 1022.94c0,1470.78 -11.48,2012.36 236.91,3502.13 106.67,639.8 332.21,1550.63 609.28,2106.82 267.83,537.66 359.84,771.03 736.01,1274.6 504.37,675.14 1251.44,1335.29 2156.84,1335.29 3.32,148.91 53.93,322.62 85.24,479.14l293.95 1505.02c133.84,669.21 246.03,1354.53 396.83,2001.8l-1431.8 261.34c-1343.25,263.33 -977.72,1890.36 56.12,1890.36 195.38,0 1060.39,-179.9 1319.86,-232.19 426.05,-85.86 2706.87,-495.77 2923.92,-603.48 846.65,-420.14 527.73,-1859.4 -475.66,-1781.61 -229.67,17.81 -1565.37,266.13 -1686.96,324.48l-185.18 -978.85c-175.71,-878.54 -400.22,-2188.9 -590.84,-3007.11 252.03,-58.71 465.98,-276.74 648.24,-445.25l36.31 -34.23c217.17,-215.95 429.92,-546.33 560.24,-850.72 411.41,-960.94 448.36,-1568.38 448.36,-2655.75 0,-1743.88 -903.02,-4239.87 -1693.15,-5820.2 -371.44,-742.89 -347.46,-710.3 -1090.56,-561.45 -235.5,47.18 -2966.38,542.15 -3099.03,640 -262.51,193.64 -254.93,1302.08 -254.93,1649.87z"/>
   <path class="fil0" d="M6670.94 4797.26l0 -1128.77c0,-250.3 -134.53,-423.29 -388.01,-423.29 -489.1,0 -353.14,984.36 -352.74,1657.88 0.3,514.74 -158.16,1007.94 118.93,1187.16 166.24,107.52 353.41,74.72 473.89,-65.19 139.24,-161.69 147.92,-903.98 147.92,-1227.79z"/>
   <path class="fil0" d="M11785.67 4268.15l429.69 1439.82c152.2,470.41 699.08,288.73 699.08,-64.14 0,-259.07 -254.98,-992.43 -342.97,-1244.37 -72.42,-207.39 -120.02,-410.01 -348.03,-465.51 -197.04,-47.96 -437.78,121.74 -437.78,334.2z"/>
   <path class="fil0" d="M7693.89 317.47l0 1269.86c0,346.51 705.48,398.85 705.48,-70.55l0 -1234.58c0,-168.3 -174.8,-274.69 -350.38,-282.19l-39.17 0c-163.28,6.95 -315.94,102.66 -315.94,317.47z"/>
   <path class="fil0" d="M6106.56 423.29c0,167.43 237.64,514.24 317.47,634.93 123.84,187.26 199.94,458.56 493.84,458.56 160.25,0 352.74,-167.57 352.74,-317.47 0,-186.79 -480.45,-1128.76 -776.02,-1128.76 -103.16,0 -197.9,38.21 -257.69,95.05 -44.89,42.67 -130.32,188.68 -130.32,257.68z"/>
   <path class="fil0" d="M8893.2 1128.77c0,374.31 442.51,601.95 721.26,121.6 91.62,-157.88 163.83,-261.54 255.43,-414.78 74.57,-124.75 205.67,-292.84 168.74,-462.04 -39.29,-179.97 -167.99,-303.01 -369.41,-303.01 -324.36,0 -776.03,988.46 -776.03,1058.22z"/>
   <path class="fil0" d="M5683.27 7195.89c0,494.73 780.55,461.23 728.76,-23.4 -50.66,-474.15 -728.76,-417.75 -728.76,23.4z"/>
   <path class="fil0" d="M11256.56 2963.01c0,511.58 705.48,511.58 705.48,0 0,-453.47 -705.48,-456.59 -705.48,0z"/>
  </g>
 </g>
</svg>
