<?xml version="1.0" encoding="UTF-8"?>
<!DOCTYPE svg PUBLIC "-//W3C//DTD SVG 1.1//EN" "http://www.w3.org/Graphics/SVG/1.1/DTD/svg11.dtd">
<!-- Creator: CorelDRAW 2021 (64-Bit) -->
<svg xmlns="http://www.w3.org/2000/svg" xml:space="preserve" width="126.984mm" height="126.984mm" version="1.1" style="shape-rendering:geometricPrecision; text-rendering:geometricPrecision; image-rendering:optimizeQuality; fill-rule:evenodd; clip-rule:evenodd"
viewBox="0 0 17188.16 17188.16"
 xmlns:xlink="http://www.w3.org/1999/xlink"
 xmlns:xodm="http://www.corel.com/coreldraw/odm/2003">
 <defs>
  <style type="text/css">
   <![CDATA[
    .fil0 {fill:black}
   ]]>
  </style>
 </defs>
 <g id="Layer_x0020_1">
  <metadata id="CorelCorpID_0Corel-Layer"/>
  <path class="fil0" d="M7663.06 13105.97c-964.27,-1822.34 -414.12,-4102.03 1188.16,-5185.78 234.45,-158.58 421.43,-266.79 673.89,-400.37l308.03 730.43c493.08,1701.9 -128.14,3530.04 -1496.19,4455.35 -234.45,158.58 -421.43,266.79 -673.89,400.37zm3938.95 -5908.42c205.59,0 597.09,98.08 774.84,156.17 261.67,85.53 439.07,164.43 657.79,273.24 375.09,186.6 532.07,330.49 828.65,567.88 177.52,142.08 528.47,562.23 646.61,749.93 125.64,199.61 220.16,381.26 327.29,603.72 900.65,1870.19 43.5,4350.74 -2018.09,5275.9 -211.25,94.79 -486.62,192.79 -724.31,242.53 -875.47,183.18 -1676.14,141.46 -2485.91,-218.51l-441.87 -202.67c35.59,-133.29 28.71,-62.58 245.55,-219.97 1513.09,-1098.35 2619.14,-2799.18 2619.14,-4757.44 0,-833.31 -76.8,-1735.3 -429.7,-2470.79zm-6445.56 3688.29c0,862.94 62.37,1776.86 429.7,2542.42 -205.59,0 -597.09,-98.09 -774.84,-156.19 -261.67,-85.53 -439.07,-164.43 -657.79,-273.24 -358.86,-178.52 -785.3,-493.52 -1065.48,-796.58 -721.41,-780.29 -1082.76,-1739.17 -1082.76,-2856.18 0,-1766.34 1375.81,-3428.92 3088.07,-3787.21 809.57,-169.39 1215.38,-148.85 2011.58,48.27 195.87,48.5 307.08,95.56 474.3,170.27l441.9 202.66c-35.59,133.27 -28.71,62.56 -245.55,219.95 -103.99,75.5 -194.63,134.52 -292.01,209.32 -200.06,153.7 -328.39,275.52 -509.85,456.99 -1047.55,1047.58 -1817.29,2485.71 -1817.29,4019.52zm5621.97 -5120.63c165.34,-3.7 120.02,-35.82 250.65,-35.82 3824.71,0 6224.02,3490.08 5436.08,6653.58 -86.87,348.72 -188.29,709.3 -338.84,1021.89 -941.84,1955.7 -2803.31,3210.37 -4954.01,3210.37 -374.06,0 -895.51,-71.58 -1210.66,-150.07 -4256.74,-1060.26 -5664.27,-6133.54 -2505.2,-9259.36 85.82,-84.91 161.17,-132.91 251.61,-213.9 164.27,-147.09 713.1,-535.96 886.02,-582.13 151.17,101.22 532.32,470.19 572.94,644.56 -504.58,117.54 -1395.6,956.35 -1748.22,1474.56 -1267.81,1863.23 -1085.77,4303.73 503.72,5893.21 736.19,736.21 1913.95,1333.73 3034.93,1333.73 834.5,0 1429.83,-65.31 2160.93,-417.29 1476.55,-710.88 2637.43,-2281.4 2637.43,-3915.55 0,-878.21 -47.09,-1456.06 -441.21,-2244.45 -718.26,-1436.8 -2215.03,-2589.73 -3999.07,-2589.73l-386.39 -616.25c-56.94,-85.14 -101.53,-133.87 -150.73,-207.34zm-9346.07 3437.63c0,878.2 47.09,1456.05 441.21,2244.43 718.26,1436.8 2215.03,2589.73 3999.07,2589.73l537.14 823.61c-1413.71,207.66 -3174.21,-506.37 -4180.67,-1512.92 -550.39,-550.46 -786.32,-865.05 -1143.32,-1578.14 -682.97,-1364.15 -686.68,-3260.54 0,-4632.1 425.03,-848.97 1056.18,-1640.85 1843.03,-2167.54 540.71,-361.93 1210.21,-678.86 1872.05,-813.6 1931,-393.14 3725.44,126.65 5055.49,1456.71 963.55,963.54 1602.44,2360.42 1602.44,3840.48 0,1606.48 -652.72,2879.07 -1727.45,3966.12 -182.16,184.26 -888.78,730.09 -1137.24,796.44 -121.25,-81.2 -205.3,-187.77 -313.34,-295.42 -117.34,-116.91 -218.91,-174.49 -259.6,-349.14 328.15,-76.45 1143.37,-723.96 1375.88,-1023.31 71.74,-92.38 113.62,-117.34 185.09,-208.82 1463.71,-1873.38 1353.79,-4465.42 -316.46,-6135.66 -736.19,-736.21 -1913.95,-1333.73 -3034.93,-1333.73l-393.89 0c-2342.85,0 -4404.47,2167.2 -4404.47,4332.86zm4118 -7197.55l931.03 0c-92.61,397.48 -319.28,958.37 -429.7,1432.35l-501.32 -1432.35zm1145.88 1360.73c108.04,-463.76 285.85,-896.97 393.89,-1360.73l823.61 0 -1217.49 1360.73zm-2578.22 -1360.73l823.59 0c108.04,463.76 285.85,896.97 393.9,1360.73 -132.22,-88.54 -195.6,-216.04 -312.89,-331.68 -62.72,-61.84 -104.78,-97.66 -157.96,-164.31l-450.52 -516.32c-143.38,-148.47 -180.15,-175.22 -296.12,-348.42zm3616.67 -1432.35c159.33,0 258.53,535.92 429.7,859.41l-859.41 0 279.05 -687.79c35.96,-93.65 40,-171.62 150.65,-171.62zm-3437.63 0c110.65,0 114.69,77.97 150.65,171.62l279.05 687.79 -859.41 0 279.05 -687.79c35.96,-93.65 40,-171.62 150.65,-171.62zm716.17 0l2005.29 0c-556.02,1050.83 156.26,859.41 -1575.58,859.41 -129.5,0 -150.27,-178.91 -240.38,-404.18 -62.78,-156.96 -118.41,-321.23 -189.32,-455.23zm-1862.05 1110.08c0,209.93 191.1,391.53 331.08,528.33l814.79 904.01c128.62,168.52 266.42,275.15 393.9,465.52 -1594.19,371.41 -2999.5,1368.21 -3775.69,2669.87 -696.14,1167.41 -915.26,1962.3 -915.26,3417.6 0,1470.36 586.5,2604.27 1396.22,3652.8l731.44 736.72c1281.38,1001.3 2328.52,1411.49 4103.05,1411.49 244.2,0 483.41,-25.73 680.37,-71.62 152.05,227.06 716.67,660.43 968.57,821.86 807.11,517.19 1954.54,968.57 3006.18,968.57 1305.68,0 2265.66,-174.06 3310.04,-807.96 1744.62,-1058.91 2992.28,-2902.81 2992.28,-4993.05 0,-1269.19 -203.98,-2243.34 -807.96,-3238.43 -98.26,-161.89 -166.35,-294.33 -276.06,-440.1 -1121.11,-1489.6 -2767.83,-2552.18 -4716.99,-2552.18 -389.15,0 -739.86,-14.63 -1110.06,71.62 -403.08,-601.93 -2153.12,-1582.02 -2936.31,-1647.2 170.47,-254.59 788.47,-877.11 992.07,-1120.63 692.61,-828.32 749.19,-422.02 21.24,-2148.63 -67.91,-161.06 -120.72,-311.61 -332.95,-311.61l-4010.57 0c-286.42,0 -367.94,400.32 -506.44,746.86 -53.25,133.23 -352.97,828.14 -352.97,936.16z"/>
 </g>
</svg>
